<svg width="80" height="80" viewBox="0 0 80 80" fill="none" xmlns="http://www.w3.org/2000/svg">
<path d="M40 70C34.4867 70 30 65.5133 30 60V44.12C26.19 47.5333 19.9167 47.3833 16.2633 43.7367C14.3903 41.8605 13.3382 39.3177 13.3382 36.6667C13.3382 34.0155 14.3903 31.4728 16.2633 29.5967L40 5.85999L63.7367 29.5967C65.6097 31.4728 66.6618 34.0155 66.6618 36.6667C66.6618 39.3177 65.6097 41.8605 63.7367 43.7367C60.09 47.3867 53.8067 47.5367 50 44.12V60C50 65.5133 45.5133 70 40 70ZM36.6667 28.0466V60C36.7051 60.8583 37.073 61.6686 37.6939 62.2624C38.3149 62.8562 39.1409 63.1875 40 63.1875C40.8591 63.1875 41.6851 62.8562 42.3061 62.2624C42.927 61.6686 43.2949 60.8583 43.3333 60V28.0466L54.31 39.0233C54.9446 39.6301 55.7887 39.9687 56.6667 39.9687C57.5446 39.9687 58.3888 39.6301 59.0233 39.0233C59.3332 38.714 59.5789 38.3467 59.7466 37.9423C59.9143 37.5379 60.0007 37.1044 60.0007 36.6667C60.0007 36.2289 59.9143 35.7954 59.7466 35.391C59.5789 34.9866 59.3332 34.6193 59.0233 34.31L40 15.2867L20.9767 34.31C20.6668 34.6193 20.4211 34.9866 20.2534 35.391C20.0857 35.7954 19.9993 36.2289 19.9993 36.6667C19.9993 37.1044 20.0857 37.5379 20.2534 37.9423C20.4211 38.3467 20.6668 38.714 20.9767 39.0233C21.6112 39.6301 22.4554 39.9687 23.3333 39.9687C24.2113 39.9687 25.0554 39.6301 25.69 39.0233L36.6667 28.0466Z" fill="#1C2B34"/>
</svg>
